<?xml version="1.0" encoding="utf-8"?>
<!-- Generator: Adobe Illustrator 23.0.6, SVG Export Plug-In . SVG Version: 6.00 Build 0)  -->
<svg version="1.1" id="Layer_1" xmlns="http://www.w3.org/2000/svg" xmlns:xlink="http://www.w3.org/1999/xlink" x="0px" y="0px"
	 viewBox="0 0 600 320" style="enable-background:new 0 0 600 320;" xml:space="preserve">
<style type="text/css">
	.st0{fill:#FFE292;}
	.st1{fill:#FFCF64;}
	.st2{fill:#F9AB2D;}
</style>
<path class="st0" d="M600.8,55.11c-13.93-1.3-27.99-1.47-41.76,0.55c-54.82,8.07-92.71,48.78-124.93,86.33
	c-5.3,6.18-28.3,11.18-42.3,12.18c-17.04,1.22-71.01,17.64-95,21.98c-32.66,5.9-99.56,7.02-132,13.99
	c-31.54,6.77-100.13,35.63-121.34,43.93C29.82,239.4,14.86,243.9,0,244.8V320h600.8V55.11z"/>
<path class="st1" d="M600.8,80.92c-48.3-4.73-98.24-0.34-141.98,17.04c-39.07,15.52-71.42,40.47-102.92,65.19
	c-40.57,31.85-81.8,64.51-132.29,84.22C173.11,267.09,110.7,271.88,63,247.82c-14.55-7.34-27.24-17.06-41.94-24.19
	c-6.53-3.16-13.7-5.79-21.06-7.33V320h600.8V80.92z"/>
<g>
	<path class="st2" d="M99.17,305.57c-20.66-11.75-40.13-25.5-63.4-33.17c-11.2-3.69-23.7-5.68-35.76-5.22V320h7.28h112.04h8.92
		C118.16,315.78,108.45,310.85,99.17,305.57z"/>
	<path class="st2" d="M600.8,320V160.67c-45.1-12.43-96.04-10.79-138.52,7.13c-52.48,22.13-88.13,63.77-127.96,99.8
		c-22.5,20.36-49,39.89-78.38,52.41H600.8z"/>
</g>
</svg>
