<?xml version="1.0" encoding="utf-8"?>
<!-- Generator: Adobe Illustrator 23.0.6, SVG Export Plug-In . SVG Version: 6.00 Build 0)  -->
<svg version="1.1" id="Layer_1" xmlns="http://www.w3.org/2000/svg" xmlns:xlink="http://www.w3.org/1999/xlink" x="0px" y="0px"
	 viewBox="0 0 500 300" style="enable-background:new 0 0 500 300;" xml:space="preserve">
<style type="text/css">
	.st0{fill:#FFB792;}
	.st1{fill:#4A2C76;}
	.st2{fill:#EAEAEA;}
	.st3{fill:#FF4A1E;}
	.st4{fill:#F2AC8C;}
	.st5{fill:url(#SVGID_1_);}
	.st6{fill:#6139BC;}
	.st7{fill:#E2A188;}
	.st8{fill:#A16D3C;}
	.st9{fill:#FF7042;}
	.st10{fill:#744DA5;}
	.st11{fill:#EE8914;}
	.st12{fill:url(#SVGID_2_);}
	.st13{fill:#1E3D70;}
	.st14{fill:#C8D1CE;}
</style>
<g>
	<g>
		<g>
			<path class="st0" d="M221.96,183.39c0.2,1.85,2.82,1.79,5.78,1.34c2.96-0.44,2.2,0.34,6.37,0.25c4.17-0.08,5.56-1.51,5.74-2.11
				c0.16-0.53-1.86-0.91-4.02-1.36c-0.27-0.06-0.55-0.12-0.82-0.17c-2.44-0.53-4.1-2.29-6.23-3.81c-2.01-1.43-3.37-8-3.37-8
				l-5.93-0.03c0,0,1.86,5.94,2.83,8.01c0.57,1.21-0.04,2.77-0.23,3.94C221.99,182.08,221.89,182.73,221.96,183.39z"/>
			<path class="st1" d="M227.74,184.73c2.96-0.44,2.2,0.34,6.37,0.25c4.17-0.08,5.56-1.51,5.74-2.11c0.16-0.53-1.86-0.91-4.02-1.36
				l-0.02,0.04c0,0-2.63,1.53-6.08,1.3c-2.81-0.19-5.7-1.26-7.63-1.4c-0.1,0.64-0.2,1.29-0.13,1.94
				C222.16,185.24,224.78,185.17,227.74,184.73z"/>
			<path class="st0" d="M175.64,183.09c0.13,1.86,2.75,1.89,5.73,1.56c2.98-0.33,2.18,0.42,6.35,0.49c4.17,0.08,5.61-1.29,5.82-1.89
				c0.18-0.53-1.82-0.98-3.97-1.51c-0.27-0.07-0.54-0.14-0.81-0.21c-2.42-0.63-4.01-2.45-6.08-4.04c-1.96-1.51-0.35-7.76-0.35-7.76
				l-4.5-2.12c0,0-0.62,6.45-0.95,9.71c-0.14,1.34-0.8,2.68-1.04,3.84C175.72,181.79,175.59,182.44,175.64,183.09z"/>
			<path class="st1" d="M181.37,184.65c2.98-0.33,2.18,0.42,6.35,0.49c4.17,0.08,5.61-1.29,5.82-1.89c0.18-0.53-1.82-0.98-3.97-1.51
				l-0.03,0.04c0,0-2.69,1.43-6.12,1.07c-2.8-0.29-5.65-1.47-7.58-1.69c-0.13,0.63-0.25,1.28-0.21,1.93
				C175.76,184.95,178.39,184.98,181.37,184.65z"/>
			<path class="st2" d="M185.73,90.26c0,0-1.25,6.03-2.49,36.61c0,0-2.31,5.66-3.99,12.59c-1.68,6.92-2.86,35.81-2.86,35.81
				s0.67,0.96,2.7,1.09c1.66,0.1,2.95-0.63,2.95-0.63s11.67-37.84,17.34-52.53c5.68-14.69,9-35.67,9-35.67L185.73,90.26z"/>
			<path class="st2" d="M199.76,92.84c0,0,0.92,6.09,10.34,35.21c0,0-0.21,6.11,0.61,13.19c0.82,7.08,10.36,34.94,10.36,34.94
				s1.27,0.44,3.17-0.06c1.77-0.47,3.15-1.53,3.15-1.53s-3.65-39.82-3.41-55.57c0.24-15.75-3.9-36.58-3.9-36.58L199.76,92.84z"/>
			<path class="st3" d="M216.44,8.5c-1.48-0.94-3.29-1.12-4.57-1.11c0.35-0.32,1-0.41,1-0.41c-0.78-0.16-2.59,0.54-2.59,0.54
				c-10.77-4.78-13.31,11.31-13.27,15.07c0.04,3.77-0.15,8.1-5.8,11.19c-11.12,6.09-2.6,18.12-2.6,18.12
				c-2,5.74,5.41,12.78,5.41,12.78c-0.13-3.05,13.88-22.48,21.43-26.92c1.91-2.53,2.77-7.13,2.84-7.49
				c-0.49,3.65-1.22,5.68-1.84,6.81C222.93,31.7,220.36,10.99,216.44,8.5z"/>
			<path class="st0" d="M214.1,35.68c0.04,0.02-3.53,1.87-6.22,1.14c-2.53-0.69-4.18-3.96-4.14-3.97c1.07-0.21,1.38-1.68,1.36-8
				l0.48,0.09l7.84,1.55l0.29,0.06c0,0-0.19,2.56-0.19,4.97c0,0.51,0.01,1.01,0.03,1.48C213.59,34.41,213.75,35.52,214.1,35.68z"/>
			<path class="st4" d="M213.52,31.52c0,0.51,0.01,1.01,0.03,1.48c-4.56-0.18-7.19-5.4-8.18-7.69l8.06,1.18l0.29,0.06
				C213.71,26.55,213.52,29.11,213.52,31.52z"/>
			<path class="st3" d="M204.74,24.06c0,0-2.38-3.77-2.96-6.99c-0.41-2.3,0.76-10.83,9.33-9.6c0,0,2.49,0.25,4.83,1.83
				c1.86,1.26,4.54,3.97,1.54,11.41l-0.78,2.51L204.74,24.06z"/>
			<path class="st0" d="M214.19,30.34c0,0-10.67-1.41-9.69-8.05c0.98-6.63,0.26-11.28,7.12-10.66c6.86,0.62,7.8,3.35,8.01,5.64
				C219.84,19.57,216.99,30.54,214.19,30.34z"/>
			<path class="st3" d="M216.49,12.19c0,0-4.07,7.35-8.72,7.83c-4.65,0.48-6.41-1-6.41-1s3.84-2.22,5.26-6.87
				C206.62,12.15,214.84,8.16,216.49,12.19z"/>
			<path class="st3" d="M215.67,12.72c0,0,1.92,2.06,2.2,3.83c0.28,1.77,0,5.28,1.03,5.31c0,0,2.98-4.96,0.96-8.32
				C217.72,9.98,215.67,12.72,215.67,12.72z"/>
			<path class="st3" d="M286.56,102.85c-2.24-4.74-8.46-8.67-13.71-8.67c-3.87,0-7.29,1.32-9.93,3.47c-1.51,1.23-3.79,0.42-4.2-1.49
				l-4.59-21.33c-0.67-3.11-3.73-5.09-6.84-4.42l-74.29,15.99c-3.04,0.65-4.97,3.65-4.32,6.69l15.97,74.21
				c0.46,2.12,2.01,3.72,3.94,4.34l-0.98,0.28h2.88l0.02,0c0.35-0.01,0.71-0.05,1.07-0.13l1.62-0.35l0,0l0,0l19.07-4.1
				c2.68-0.58,3.76-3.81,1.96-5.88c-1.74-1.99-2.99-4.46-3.52-7.26c-1.5-7.88,3.37-15.69,11.12-17.79
				c8.61-2.33,17.31,3.04,19.17,11.66c0.7,3.24,0.32,6.46-0.88,9.29c-0.47,1.1-0.08,2.24,0.72,2.9l-1.11,0.54l2.58,0l0,0
				c0.19,0,0.39-0.01,0.59-0.06l22.77-4.9c3.11-0.67,5.09-3.74,4.42-6.85l-4.56-21.2c-0.42-1.96,1.37-3.68,3.31-3.18
				c2.25,0.58,4.66,0.66,7.08,0.13C285.44,122.7,291.01,112.27,286.56,102.85z"/>
			<linearGradient id="SVGID_1_" gradientUnits="userSpaceOnUse" x1="165.9178" y1="121.1025" x2="285.4918" y2="121.1025">
				<stop  offset="0" style="stop-color:#FED747"/>
				<stop  offset="1" style="stop-color:#F94E43"/>
			</linearGradient>
			<path class="st5" d="M270.23,94.18c-3.87,0-7.29,1.32-9.93,3.47c-1.51,1.23-3.79,0.42-4.2-1.49l-4.59-21.33
				c-0.67-3.11-3.73-5.09-6.84-4.42l-74.29,15.99c-3.04,0.65-4.97,3.65-4.32,6.69l15.97,74.21c0.68,3.16,3.79,5.16,6.94,4.48
				l20.68-4.45c2.68-0.58,3.76-3.81,1.96-5.88c-1.74-1.99-2.99-4.46-3.52-7.26c-1.5-7.88,3.37-15.69,11.12-17.79
				c8.61-2.33,17.31,3.04,19.17,11.66c0.7,3.24,0.32,6.46-0.88,9.29c-0.78,1.84,0.83,3.8,2.78,3.38l22.77-4.9
				c3.11-0.67,5.09-3.74,4.42-6.85l-4.56-21.2c-0.42-1.96,1.37-3.68,3.31-3.18c2.25,0.58,4.66,0.66,7.08,0.13
				c9.53-2.05,15.09-12.48,10.65-21.9C281.7,98.11,275.47,94.18,270.23,94.18z"/>
			<path class="st0" d="M243.04,65.97c0,0,4.63,0.76,5.85,3.77c1.21,3.01-0.48,5.05-1.13,5.05c-0.65-0.01-1.9-0.49-2.49-2.05
				C244.68,71.17,243.04,65.97,243.04,65.97z"/>
			<path class="st0" d="M179.25,79.41c0,0,5.2-0.01,7.07,3.07c1.87,3.07,0.39,5.61-0.33,5.72c-0.71,0.11-2.17-0.19-3.09-1.79
				C181.98,84.81,179.25,79.41,179.25,79.41z"/>
			<path class="st6" d="M243.17,69.47c-0.46-0.1-2.48-0.34-5.04-0.74c-4.72-0.74-11.31-2.05-13.52-4.08
				c-0.6-0.55-1.99-3.6-3.44-7.09c-1.47,7.73-1.55,13.65-1.16,18.16l-31.92,6.87c2.74-5.53,6.97-12.39,6.18-17.95
				c-0.29-2.06-1.42-4.88-1.84-8.06c-0.04-0.27-0.07-0.55-0.09-0.82c-4.48,3.69-9.65,7.75-9.77,8.56
				c-0.21,1.36,3.28,16.45,3.28,16.45c-0.87,1.99-4.62,1.57-4.62,1.57c-3.52-2.52-8.7-16.77-8.29-19.93
				c0.41-3.16,13.26-21.15,16.37-25.46c3.07-4.25,14.28-4.14,14.55-4.14h0c0,0,0,0,0,0c8.92,5.35,9.72,0.9,9.72,0.9
				s8.04,1.53,9.43,3.9c1.38,2.38,7.44,20.4,7.87,21.03c0.9,1.33,15.55,6.64,15.82,8.17C246.96,68.38,244.49,69.74,243.17,69.47z"/>
			<path class="st1" d="M199.23,80.2l-11.13,2.38c2.77-5.52,6.41-12.39,5.62-17.91c-0.3-2.06-0.97-4.5-1.29-7.69
				c-0.03-0.31-0.08-1.23-0.08-1.23s7.88,6.2,8.02,12.92C200.43,72.16,199.82,76.72,199.23,80.2z"/>
			<path class="st1" d="M238.43,68.77c-4.78-0.74-11.45-2.05-13.68-4.09c-0.61-0.55-2.02-3.6-3.48-7.1c0,0-0.51-5.62,0.95-5.41
				c1.47,0.21,3.63,10.17,5.17,10.8C228.77,63.55,236.39,66.47,238.43,68.77z"/>
		</g>
		<g id="man_2_">
			<g>
				<path class="st1" d="M473.91,282.76c-0.67,2.27-3.78,3.78-4.21,6.56c-0.2,1.35-0.71,2.41-1.35,3.13h-9.68
					c0.1-0.53,0.52-1.11,1.78-1.38c2.69-0.59,3.7-3.85,3.54-6.88c-0.07-1.27-0.04-2.72,0.02-3.97c0.09-1.73,0.23-3.1,0.23-3.1
					l5.72-1.34l0.6,0.77l0.58,0.74C471.14,277.29,474.58,280.49,473.91,282.76z"/>
				<path class="st1" d="M428.81,292.45h-19.59c0.44-0.52,1.2-1.02,2.47-1.23c3.02-0.49,8.24-2.24,9.4-6.09
					c0.04-0.12,0.07-0.25,0.1-0.38c0.92-4.12,7.65,1.26,7.65,1.26s0.02,0.17,0.05,0.45C429.01,287.61,429.27,290.76,428.81,292.45z"
					/>
				<path class="st6" d="M412.49,183.28c0,0,1.02,12.75,2.22,28.07c1.63,20.81,3.59,46.38,3.79,51.22
					c0.34,8.41,1.68,21.86,1.68,21.86s3.19,3.2,9.59,1.85c0,0,5.7-19.2,7.32-39.52c0.03-0.33,0.05-0.67,0.08-1
					c1.51-20.69,3.87-64.24,3.87-64.24L412.49,183.28z"/>
				<path class="st1" d="M412.49,183.28c0,0,1.02,12.75,2.22,28.07l22.38,35.41c0.03-0.33,0.05-0.67,0.08-1
					c1.51-20.69,3.87-64.24,3.87-64.24L412.49,183.28z"/>
				<path class="st6" d="M417.15,184.8c0,0,18.41,46.16,30.52,67.86c12.11,21.69,15.89,27.75,15.89,27.75s6.94-2.77,7.57-4.67
					c0,0-4.63-41.88-12.74-52.09c-4.58-5.77-9.96-23.08-10.22-29.14c-0.25-6.05-1.64-18.04-1.64-18.04L417.15,184.8z"/>
			</g>
			<path class="st7" d="M426.6,113.54c-0.82-4.83-0.84-7.7-0.84-7.7l9.34-7.53c-0.35,10.35,6.29,15.33,6.29,15.33
				s-12.45,6.13-19.65,3.86C421.74,117.5,423.51,115.24,426.6,113.54z"/>
			<path class="st4" d="M423.55,105.67c0,0,11.89,1.97,13-5.45c1.12-7.42,3.4-12.16-4.14-13.74c-7.54-1.57-9.45,1.04-10.42,3.42
				C421.02,92.29,420.49,104.96,423.55,105.67z"/>
			<g>
				<path class="st8" d="M381.81,120.97l-2.53-1.57c0,0-3.16-4.66-8.54-1.76c0,0-2.14,1.36-0.7,2.5c1.43,1.14,1.05,0.5,3.03,2.15
					c1.98,1.65,4.55,2.24,6.21,1.33l2.12-0.2L381.81,120.97z"/>
				<path class="st3" d="M378.8,121.46c0.65-2.04,0.96-2.22,0.96-2.22s20.46,2.42,22.39,2.56c1.93,0.14,28.72-5.38,28.72-5.38
					l12.65,15.36c0,0-37.3,1.41-42.18,0.95c-8.07-0.76-22.7-8.27-22.7-8.27S378.29,123.06,378.8,121.46z"/>
			</g>
			<path class="st9" d="M447.95,178.83c0.04,0.79-1.6,1.66-2.31,1.98c-5.34,2.4-10.32,4.06-15.94,4.6
				c-6.67,0.68-14.55-0.82-17.25-0.78c-0.29,0-0.54-0.11-0.76-0.29c-0.18-0.14-0.32-8.29-0.18-18.56c0-0.4,0-0.83,0.04-1.23v-0.14
				c0.01-1.07,0.03-2.16,0.05-3.25c0.07-3,0.18-6.08,0.31-9.14c0.2-4.51,0.46-8.95,0.83-12.88c0.39-4.1,0.88-7.66,1.51-10.18
				c1.44-5.8,4.76-9.62,7.78-12.43l2.49-2.2c2.49,0.5,5.12,0.36,7.75-0.94c2.85-1.41,5.95-2.92,6.45-2.56
				c3.84,2.87,6.43,9.39,7.75,17.68c0.71,4.46,1.06,9.43,1.04,14.62c-0.01,1.99-0.07,4.01-0.18,6.05
				c-0.64,10.94,0.02,20.43,0.39,25.94C447.84,176.7,447.92,177.96,447.95,178.83z"/>
			<path class="st1" d="M384.76,77.68l-75.17-11.94c-3.2-0.51-6.2,1.67-6.71,4.87l-3.33,20.95c-0.15,0.97,0.09,3.7,0.09,3.7
				l2.71,0.4c0.15,0.03,0.31,0.06,0.47,0.07l0,0l0,0c0.49,0.04,1-0.02,1.51-0.21c2.49-0.9,5.25-1.18,8.06-0.66
				c7.91,1.45,13.45,8.83,12.61,16.83c-0.94,8.9-9.11,15.09-17.84,13.7c-3.28-0.52-6.16-2.04-8.37-4.19
				c-0.43-0.42-0.95-0.64-1.47-0.69l0,0l-2.83-0.43l-3.53,25.56c-0.5,3.15,1.65,6.11,4.8,6.61l21.47,3.41
				c1.99,0.32,2.95,2.61,1.78,4.25c-1.35,1.89-2.3,4.12-2.69,6.57c-1.53,9.65,6.2,18.63,16.62,17.88
				c5.25-0.38,11.17-4.78,13.07-9.68c1.4-3.62,1.4-7.29,0.35-10.55c-0.6-1.86,0.98-3.7,2.91-3.39l21.61,3.43
				c3.15,0.5,6.11-1.65,6.61-4.8l11.95-75.25C389.94,81.06,387.84,78.17,384.76,77.68z"/>
			<path class="st3" d="M438.99,128.29c0,0-5.76,26.89-27.39,32.88c0.07-3,0.18-6.08,0.31-9.14c0.2-4.51,0.46-8.95,0.83-12.88
				c0.39-0.2,0.75-0.35,1.08-0.46C421.17,136.26,438.99,128.29,438.99,128.29z"/>
			<path class="st10" d="M343.24,174.27c1.4-3.62,1.41-7.29,0.35-10.55c-0.6-1.86,0.98-3.7,2.91-3.39l21.61,3.43
				c3.15,0.5,6.11-1.65,6.61-4.8l11.95-75.25c0.49-3.08-1.61-5.97-4.69-6.46l-75.17-11.94c-3.2-0.51-6.2,1.67-6.71,4.87l-3.33,20.95
				c-0.43,2.71,2.2,4.9,4.78,3.96c2.49-0.9,5.25-1.18,8.06-0.66c7.91,1.45,13.45,8.83,12.61,16.83c-0.94,8.9-9.11,15.09-17.84,13.7
				c-3.28-0.52-6.16-2.04-8.37-4.19c-1.44-1.4-3.85-0.6-4.17,1.38l-3.66,23.06c-0.5,3.15,1.65,6.11,4.8,6.61l21.47,3.41
				c1.99,0.32,2.95,2.61,1.78,4.25c-1.35,1.89-2.3,4.12-2.69,6.57c-1.53,9.65,6.2,18.63,16.62,17.88
				C335.41,183.58,341.34,179.18,343.24,174.27z"/>
			<g>
				<path class="st4" d="M381.9,138.3l-3.09-0.51c0,0-3.52-5.1-9.66-2.24c0,0-2.44,1.36-0.82,2.64c1.61,1.28,1.18,0.57,3.41,2.42
					c2.23,1.84,5.13,2.58,7.02,1.68l2.41-0.13L381.9,138.3z"/>
				<path class="st9" d="M379.53,139.87c0.1-2.27,1.31-2.52,1.31-2.52s23.41-1.55,25.43-1.94c2.02-0.39,20.67-15.84,20.67-15.84
					s7.21-6.48,12.26-4.29c4.39,1.9,5.76,5.65,5.99,9.1c0.26,4.11-2.05,7.95-5.78,9.69c-8.37,3.91-25.12,11.59-28.94,12.25
					c-8.49,1.47-30.31-3.25-30.31-3.25S379.45,141.66,379.53,139.87z"/>
			</g>
			<path class="st1" d="M422,89.91c0,0-4.82-3.58-1.68-9.14c0,0,3.79,1.26,9.19,0c5.39-1.26,10.21,0.52,10.84,2.41
				c0,0,2.1,0.84,2.31,3.99c0.21,3.15-6.1,13.06-6.1,13.06s-1.35-1.68-0.98-2.83c0.37-1.15,1.52-3.72,0.1-3.72
				c-1.42,0-1.89,2.1-2.46,1.26c-0.58-0.84,0.47-4.35-1.21-4.93C430.33,89.42,423.88,90.97,422,89.91z"/>
		</g>
		<path class="st11" d="M258.03,289.77l-21.25-96.48h5.85c1.39,0,2.52-1.13,2.52-2.52v-3.26c0-1.39-1.13-2.52-2.52-2.52h-74.2
			c-1.39,0-2.52,1.13-2.52,2.52v3.26c0,1.39,1.13,2.52,2.52,2.52h7.53l-21.25,96.48c-0.29,1.3,0.54,2.59,1.83,2.88
			c1.29,0.29,2.58-0.54,2.87-1.84l21.48-97.52h50.95l21.48,97.52c0.29,1.3,1.58,2.12,2.87,1.84l0,0
			C257.49,292.36,258.31,291.06,258.03,289.77z"/>
		<g>
			<path class="st3" d="M370.27,204.89h-21.21c-2.74,0-4.49,2.94-3.17,5.35c1.28,2.32-3.23,22.42-12.73,22.95
				c-8.93,0.49-16.33-6.64-16.33-15.47c0-3.32,1.05-6.4,2.83-8.92c1.16-1.64-0.01-3.9-2.02-3.9h-23.35c-3.19,0-5.78,2.59-5.78,5.78
				c0,0-2.12,25.06-3.92,24.16c-1.85-0.93-3.92-1.49-6.11-1.6l0,0h-0.02c-0.26-0.01-0.52-0.02-0.79-0.02
				c-0.27,0-4.11-0.07-4.11-0.07l-0.58,30.97l3.34,0.04c3.17-0.09,5.93-0.39,8.38-1.64c1.74-0.89,3.81,0.39,3.81,2.34v21.88
				c0,3.19,2.59,5.78,5.78,5.78h76.19c3.12,0,5.64-2.53,5.64-5.64v-76.11C376.13,207.52,373.5,204.89,370.27,204.89z"/>
			<linearGradient id="SVGID_2_" gradientUnits="userSpaceOnUse" x1="258.0832" y1="248.6353" x2="372.019" y2="248.6353">
				<stop  offset="0" style="stop-color:#FED747"/>
				<stop  offset="1" style="stop-color:#F94E43"/>
			</linearGradient>
			<path class="st12" d="M270.13,263.75c3.8,0.82,7.42,0.24,10.47-1.31c1.74-0.89,3.81,0.39,3.81,2.34v21.88
				c0,3.19,2.59,5.78,5.78,5.78h76.19c3.12,0,5.64-2.53,5.64-5.64v-76.11c0-3.24-2.62-5.86-5.86-5.86h-21.21
				c-2.74,0-4.49,2.94-3.17,5.35c1.28,2.32,1.99,5,1.92,7.86c-0.19,8.04-6.62,14.67-14.65,15.09c-8.94,0.47-16.33-6.64-16.33-15.47
				c0-3.32,1.05-6.4,2.83-8.92c1.16-1.64-0.01-3.9-2.02-3.9h-23.35c-3.19,0-5.78,2.59-5.78,5.78v21.74c0,2.01-2.12,3.32-3.92,2.42
				c-2.08-1.04-4.43-1.63-6.91-1.63c-9.77,0-17.43,9.05-15.06,19.22C259.71,257.49,264.99,262.65,270.13,263.75z"/>
		</g>
		<g>
			<g>
				<path class="st4" d="M98.44,182.21l2.03,1.65c0,0,5.54-1.99,6.79,4.6c0,0,0.33,2.81-1.45,2.81c-1.78,0.01-1.04-0.31-3.56-0.23
					c-2.52,0.07-4.6-1.25-4.97-3.3l-1.2-1.73L98.44,182.21z"/>
				<path class="st13" d="M98.21,185.74c1.62-1.69,1.49-2.94,1.49-2.94s-18.72-15.33-20.62-16.57
					c-1.29-0.85-15.08-13.07-21.52-20.52c-3.2-3.7-7.16-2.26-11.69-0.96l-3.73,1.07c-4.5,1.29-5.68,7.59-1.98,10.65
					c10.41,8.62,27.73,18.32,30.97,20.36c8.04,5.06,23.79,11.07,23.79,11.07S96.82,187.19,98.21,185.74z"/>
			</g>
			<path class="st2" d="M120.12,279.74c0,0,4.54,3.4,11.5,1.6c0,0,5.61-1.28,6.84,1.52c0,0-8.61,4.37-10.79,5.57
				c-1.64,0.9-3.35,2.32-4.57,3.42c-0.96,0.87-2.45,0.75-3.27-0.25c-0.38-0.47-0.81-1.02-1.29-1.66c-1.33-1.8-4.42-7.61-4.42-7.61
				L120.12,279.74z"/>
			<path class="st9" d="M122.24,278.17c0,0-2.77,6.38-9.15,5.21c0,0-13.03-10.76-21.97-21.94c-2.9-3.63-5.37-7.3-6.83-10.67
				c-5.93-13.72-21.92-34.19-32.09-44.56L77.65,197c0,0,8.15,16.4,18.99,36.53C104.46,248.05,113.67,264.5,122.24,278.17z"/>
			<path class="st3" d="M96.64,233.54l-5.52,27.9c-2.9-3.63-5.37-7.3-6.83-10.67c-5.93-13.72-21.92-34.19-32.09-44.56L77.65,197
				C77.65,197,85.8,213.4,96.64,233.54z"/>
			<path class="st2" d="M75.78,283.36c0,0-0.28,5.09,5.89,5.77c0,0,3.53,0.02,3.54,3.26l-17.93,0.06c0,0-0.52-1.31-0.65-4.11
				c-0.1-2.15,2.08-7.77,2.08-7.77L75.78,283.36z"/>
			<path class="st9" d="M69.3,197c0,0,11.34,12.46,18.53,34.9c3.92,12.21-7.18,42.91-9.34,53.57c0,0-7.44,0.63-12.53-1.34
				c0,0-0.39-22.03,2.59-39.01c1.66-9.5-14.93-20.32-22.18-37.49c-4.93-11.68,1.07-11.48,8.44-11.76L69.3,197z"/>
			<path class="st0" d="M56.22,141.43c-6.31,3.56-19.22,0.28-19.22,0.28s5.24-5.99,2.86-15.65l4.95,2.51l5.32,2.7
				c0,0,0.34,1.71,0.58,4.77c0.06,0.79,0.12,1.67,0.15,2.63C54.1,139.66,56.22,141.43,56.22,141.43z"/>
			<path class="st2" d="M79.34,196.36c0,1.11-1.28,1.64-1.55,1.69c-2.54,0.46-9.65,3.23-16.04,3.86
				c-5.39,0.56-10.39,0.03-15.89-1.07c-0.73-0.15-2.44-0.61-2.56-1.3c-0.15-0.76-21.2-42.9-4.84-61c0.38-0.42,3.61,0.34,6.57,1.04
				c2.73,0.65,5.23,0.29,7.46-0.61l2.77,1.46c3.4,1.9,9.84,8.63,10.59,13.91c0.38,2.69,1.92,4.68,2.36,7.04
				c0.17,0.87,0.33,1.73,0.51,2.56c0.34,1.63,0.68,3.19,1.04,4.66c0.96,4,1.98,7.44,2.98,10.41c1.06,3.16,2.1,5.78,3.03,7.98
				c1.21,2.85,2.23,4.98,2.86,6.6C79.09,194.73,79.34,195.63,79.34,196.36z"/>
			<path class="st14" d="M78.64,193.58c-29.71-14-40-40.87-40-40.87s24.14,8.9,30.09,11.22c0.34,1.63,0.68,3.19,1.04,4.66
				c0.96,4,1.98,7.44,2.98,10.41c1.06,3.16,2.1,5.78,3.03,7.98C76.98,189.83,78,191.95,78.64,193.58z"/>
			<path class="st1" d="M162.55,163.82l-6.36-20.18c-0.62-1.96-2.65-2.89-4.42-2.39l0,0l0,0c-0.09,0.03-0.19,0.06-0.28,0.09
				l-2.23,0.75c0,0-3.49,3.6-6,4.32c-7.71,2.23-15.02-1.88-17.83-9.39c-3.13-8.36,0.5-17.54,8.9-20.19
				c2.87-0.91,8.53,0.78,8.53,0.78l2.27-0.75c1.23-0.38,2.08-1.71,1.64-3.1l-7-22.21c-0.96-3.04-4.19-4.72-7.23-3.76l-20.68,6.52
				c-1.91,0.6-3.79-1.02-3.48-3c0.37-2.29,0.22-4.7-0.53-7.06c-2.93-9.29-13.83-13.86-22.8-8.56c-4.51,2.67-7.84,9.24-7.35,14.46
				c0.36,3.86,2,7.14,4.39,9.57c1.37,1.39,0.77,3.74-1.09,4.32l-20.81,6.56c-3.03,0.96-4.72,4.19-3.76,7.23l22.86,72.47
				c0.93,2.96,4.1,4.61,7.06,3.68l72.39-22.83C161.81,170.18,163.52,166.89,162.55,163.82z"/>
			<path class="st10" d="M75.49,90.88c0.36,3.86,2,7.14,4.39,9.57c1.37,1.39,0.77,3.74-1.09,4.32l-20.81,6.56
				c-3.03,0.96-4.72,4.19-3.76,7.23l22.86,72.47c0.93,2.96,4.1,4.61,7.06,3.68l72.39-22.83c3.08-0.97,4.79-4.25,3.82-7.33
				l-6.36-20.18c-0.82-2.61-4.15-3.39-6.03-1.41c-1.82,1.92-4.16,3.39-6.9,4.18c-7.71,2.23-15.94-1.89-18.75-9.41
				c-3.13-8.36,1.41-17.52,9.82-20.17c3.16-1,6.4-0.92,9.34,0.01c1.91,0.61,3.71-1.18,3.11-3.09l-7-22.21
				c-0.96-3.04-4.19-4.72-7.23-3.76l-20.68,6.52c-1.91,0.6-3.79-1.02-3.48-3c0.37-2.29,0.22-4.7-0.53-7.06
				c-2.93-9.29-13.83-13.86-22.8-8.56C78.33,79.1,75.01,85.66,75.49,90.88z"/>
			<g>
				<path class="st0" d="M96.02,185.47l2.57,0.94c0,0,5.14-3.64,8.34,2.28c0,0,1.16,2.58-0.67,3.14c-1.83,0.56-1.17,0.03-3.74,0.89
					c-2.58,0.86-5.11,0.24-6.09-1.6l-1.74-1.28L96.02,185.47z"/>
				<path class="st2" d="M98.13,189.1c0.95-2.48,1.38-3.6,1.38-3.6s-19.4-15.81-21.37-17.17c-1.35-0.92-14.76-10.95-21.29-18.76
					c-3.24-3.87-8.36-5.65-13.3-4.61l-4.07,0.85c-4.92,1.03-6.51,7.25-2.7,10.52c10.74,9.21,28.86,19.89,32.24,22.11
					c8.39,5.52,26.94,13.24,26.94,13.24S97.38,191.05,98.13,189.1z"/>
			</g>
			<path class="st4" d="M50.71,136.04c-6.2,0.35-10.24-4.77-10.24-4.77s2.8-1.55,4.33-2.7l5.32,2.7
				C50.13,131.28,50.47,132.98,50.71,136.04z"/>
			<path class="st0" d="M53.36,129.68c0,0-9.4,6.74-13.51,0.83c-4.11-5.92-8.09-9.03-2.26-13.59c5.83-4.56,8.57-3.12,10.42-1.48
				C49.86,117.08,55.69,127.77,53.36,129.68z"/>
			<path class="st1" d="M49,110.1c-0.34-2.27-1.1-3.87-1.1-3.87s-0.59,2.44-5.05,2.11c-4.46-0.34-11.54,0.44-13.9,5.53
				c-0.15,0.32-0.28,0.66-0.4,1c-0.43-1.13-0.53-2.82-0.53-2.82c-0.85,2.19,0,4.93,0,4.93h0c-0.01,0.08-0.02,0.16-0.03,0.24
				c-0.98,0.83-1.81,3.42-1.81,3.42c0.3-0.72,1.02-1.19,1.67-1.48c-0.02,3.96,1.59,7.83,4.4,8.98c4.12,1.68,4.09,0.4,8.23,3.15
				c0,0,1.11-1.38,0.35-2.31c-0.76-0.93-3.62-2.27-2.02-3.62c1.6-1.35,2.19,0.17,2.78-0.76c0.59-0.93-2.36-3.62,1.43-6.15
				C46.81,115.91,49.34,112.37,49,110.1z"/>
		</g>
	</g>
</g>
</svg>
