<?xml version="1.0" encoding="utf-8"?>
<!-- Generator: Adobe Illustrator 23.0.6, SVG Export Plug-In . SVG Version: 6.00 Build 0)  -->
<svg version="1.1" id="Layer_1" xmlns="http://www.w3.org/2000/svg" xmlns:xlink="http://www.w3.org/1999/xlink" x="0px" y="0px"
	 viewBox="0 0 1000 700" style="enable-background:new 0 0 1000 700;" xml:space="preserve">
<style type="text/css">
	.st0{fill:#FFE292;}
	.st1{fill:#FFCF64;}
	.st2{fill:#F9AB2D;}
</style>
<path class="st0" d="M1000.36,147.81c-23.18-2.42-46.57-2.73-69.48,1.03c-91.2,14.97-155.72,89.19-207.85,160.28
	S616.36,458.07,529.61,488.2c-33.19,11.53-69.55,15.09-104.61,10.24c-83.81-11.59-159.87-69.7-243.73-58.46
	c-38.59,5.17-72.88,24.67-108.17,40.07c-22.71,9.92-47.59,18.27-72.31,19.93v139.62h999.56V147.81z"/>
<path class="st1" d="M1000.36,195.91c-80.35-9.27-163.44-0.66-236.22,33.43c-65.01,30.45-118.82,79.4-171.22,127.9
	c-67.5,62.48-136.1,126.57-220.1,165.25c-84,38.68-187.85,48.08-267.2,0.88c-24.21-14.4-45.31-33.47-69.78-47.46
	c-10.86-6.21-22.79-11.35-35.04-14.38L1,640c0,0,43.66,32.03,94,23c78-14,403.62-26.35,492,9c95,38,413-22,413-22L1000.36,195.91z"
	/>
<g>
	<path class="st2" d="M171.72,619.81c-34.38-21.82-72.71-42.33-111.42-56.57c-18.63-6.86-39.43-10.54-59.5-9.69v98.07
		c0,0,12.53,21.44,19.32,24.32c42.22,17.9,103.55,1.15,148.27-5.61c3.68-0.56,58.14-5.03,58.31-18.71
		C226.95,631.21,187.16,629.61,171.72,619.81z"/>
	<path class="st2" d="M1000.36,639.61V343.79c-75.03-23.08-159.78-20.03-230.46,13.23c-87.31,41.09-146.62,118.39-212.89,185.3
		C519.57,580.11,475.88,627.76,427,651c0,0,262.82,54.09,397.77,48.48C1021.27,691.3,1000.36,639.61,1000.36,639.61z"/>
</g>
</svg>
